<svg width="863" height="67" viewBox="0 0 863 67" fill="none" xmlns="http://www.w3.org/2000/svg">
<path d="M0 30C0 13.4315 13.4315 0 30 0H833C849.569 0 863 13.4315 863 30V37C863 53.5685 849.569 67 833 67H0V30Z" fill="url(#paint0_linear_4_11)"/>
<path d="M343.2 47C342.853 47 342.573 46.9067 342.36 46.72C342.173 46.5333 342.04 46.2667 341.96 45.92L336.8 20.24C336.773 20.1333 336.76 20.04 336.76 19.96C336.76 19.88 336.76 19.8267 336.76 19.8C336.76 19.5867 336.84 19.4 337 19.24C337.16 19.08 337.347 19 337.56 19H339.64C340.2 19 340.52 19.2267 340.6 19.68L344.68 40.32L349 26.16C349.08 25.92 349.213 25.7067 349.4 25.52C349.613 25.3067 349.907 25.2 350.28 25.2H351.76C352.16 25.2 352.453 25.3067 352.64 25.52C352.827 25.7067 352.947 25.92 353 26.16L357.36 40.32L361.4 19.68C361.48 19.2267 361.813 19 362.4 19H364.48C364.693 19 364.88 19.08 365.04 19.24C365.2 19.4 365.28 19.5867 365.28 19.8C365.28 19.8267 365.267 19.88 365.24 19.96C365.24 20.04 365.24 20.1333 365.24 20.24L360.08 45.92C360 46.2667 359.853 46.5333 359.64 46.72C359.453 46.9067 359.187 47 358.84 47H357.28C356.907 47 356.613 46.9067 356.4 46.72C356.187 46.5333 356.04 46.2933 355.96 46L351 30.76L346.08 46C345.973 46.2933 345.813 46.5333 345.6 46.72C345.413 46.9067 345.133 47 344.76 47H343.2ZM377.652 47.4C375.625 47.4 373.932 47.0133 372.572 46.24C371.212 45.4667 370.172 44.4 369.452 43.04C368.732 41.6533 368.332 40.08 368.252 38.32C368.225 37.8667 368.212 37.2933 368.212 36.6C368.212 35.88 368.225 35.3067 368.252 34.88C368.332 33.0933 368.732 31.52 369.452 30.16C370.199 28.8 371.252 27.7333 372.612 26.96C373.972 26.1867 375.652 25.8 377.652 25.8C379.652 25.8 381.332 26.1867 382.692 26.96C384.052 27.7333 385.092 28.8 385.812 30.16C386.559 31.52 386.972 33.0933 387.052 34.88C387.079 35.3067 387.092 35.88 387.092 36.6C387.092 37.2933 387.079 37.8667 387.052 38.32C386.972 40.08 386.572 41.6533 385.852 43.04C385.132 44.4 384.092 45.4667 382.732 46.24C381.372 47.0133 379.679 47.4 377.652 47.4ZM377.652 44.32C379.305 44.32 380.625 43.8 381.612 42.76C382.599 41.6933 383.132 40.1467 383.212 38.12C383.239 37.72 383.252 37.2133 383.252 36.6C383.252 35.9867 383.239 35.48 383.212 35.08C383.132 33.0533 382.599 31.52 381.612 30.48C380.625 29.4133 379.305 28.88 377.652 28.88C375.999 28.88 374.665 29.4133 373.652 30.48C372.665 31.52 372.145 33.0533 372.092 35.08C372.065 35.48 372.052 35.9867 372.052 36.6C372.052 37.2133 372.065 37.72 372.092 38.12C372.145 40.1467 372.665 41.6933 373.652 42.76C374.665 43.8 375.999 44.32 377.652 44.32ZM393.021 47C392.754 47 392.527 46.92 392.341 46.76C392.181 46.5733 392.101 46.3467 392.101 46.08V27.16C392.101 26.8933 392.181 26.6667 392.341 26.48C392.527 26.2933 392.754 26.2 393.021 26.2H394.861C395.127 26.2 395.354 26.2933 395.541 26.48C395.727 26.6667 395.821 26.8933 395.821 27.16V28.92C396.354 28.0133 397.087 27.3333 398.021 26.88C398.954 26.4267 400.074 26.2 401.381 26.2H402.981C403.247 26.2 403.461 26.2933 403.621 26.48C403.781 26.64 403.861 26.8533 403.861 27.12V28.76C403.861 29.0267 403.781 29.24 403.621 29.4C403.461 29.56 403.247 29.64 402.981 29.64H400.581C399.141 29.64 398.007 30.0667 397.181 30.92C396.354 31.7467 395.941 32.88 395.941 34.32V46.08C395.941 46.3467 395.847 46.5733 395.661 46.76C395.474 46.92 395.247 47 394.981 47H393.021ZM408.256 47C407.989 47 407.763 46.92 407.576 46.76C407.416 46.5733 407.336 46.3467 407.336 46.08V19.52C407.336 19.2533 407.416 19.04 407.576 18.88C407.763 18.6933 407.989 18.6 408.256 18.6H410.136C410.429 18.6 410.656 18.6933 410.816 18.88C410.976 19.04 411.056 19.2533 411.056 19.52V46.08C411.056 46.3467 410.976 46.5733 410.816 46.76C410.656 46.92 410.429 47 410.136 47H408.256ZM424.622 47.4C423.156 47.4 421.889 47.1467 420.823 46.64C419.756 46.1067 418.876 45.4 418.183 44.52C417.516 43.6133 417.009 42.5867 416.663 41.44C416.343 40.2933 416.156 39.08 416.103 37.8C416.076 37.3733 416.063 36.9733 416.063 36.6C416.063 36.2267 416.076 35.8267 416.103 35.4C416.156 34.1467 416.343 32.9467 416.663 31.8C417.009 30.6533 417.516 29.6267 418.183 28.72C418.876 27.8133 419.756 27.1067 420.823 26.6C421.889 26.0667 423.156 25.8 424.622 25.8C426.196 25.8 427.503 26.08 428.543 26.64C429.583 27.2 430.436 27.8933 431.103 28.72V19.52C431.103 19.2533 431.183 19.04 431.343 18.88C431.529 18.6933 431.756 18.6 432.023 18.6H433.943C434.209 18.6 434.423 18.6933 434.583 18.88C434.769 19.04 434.863 19.2533 434.863 19.52V46.08C434.863 46.3467 434.769 46.5733 434.583 46.76C434.423 46.92 434.209 47 433.943 47H432.143C431.849 47 431.623 46.92 431.463 46.76C431.303 46.5733 431.223 46.3467 431.223 46.08V44.4C430.556 45.2533 429.689 45.9733 428.623 46.56C427.556 47.12 426.223 47.4 424.622 47.4ZM425.463 44.16C426.796 44.16 427.863 43.8533 428.663 43.24C429.463 42.6267 430.063 41.8533 430.463 40.92C430.863 39.96 431.076 38.9867 431.103 38C431.129 37.5733 431.143 37.0667 431.143 36.48C431.143 35.8667 431.129 35.3467 431.103 34.92C431.076 33.9867 430.849 33.0667 430.423 32.16C430.023 31.2533 429.409 30.5067 428.583 29.92C427.783 29.3333 426.743 29.04 425.463 29.04C424.103 29.04 423.023 29.3467 422.223 29.96C421.423 30.5467 420.849 31.3333 420.503 32.32C420.156 33.28 419.956 34.32 419.903 35.44C419.876 36.2133 419.876 36.9867 419.903 37.76C419.956 38.88 420.156 39.9333 420.503 40.92C420.849 41.88 421.423 42.6667 422.223 43.28C423.023 43.8667 424.103 44.16 425.463 44.16ZM449.652 47C449.252 47 448.932 46.9067 448.692 46.72C448.478 46.5333 448.305 46.28 448.172 45.96L439.252 20.24C439.198 20.08 439.172 19.9333 439.172 19.8C439.172 19.5867 439.252 19.4 439.412 19.24C439.572 19.08 439.758 19 439.972 19H442.052C442.372 19 442.612 19.0933 442.772 19.28C442.958 19.44 443.065 19.5867 443.092 19.72L450.932 42.4L458.772 19.72C458.825 19.5867 458.932 19.44 459.092 19.28C459.252 19.0933 459.492 19 459.812 19H461.892C462.105 19 462.292 19.08 462.452 19.24C462.638 19.4 462.732 19.5867 462.732 19.8C462.732 19.9333 462.705 20.08 462.652 20.24L453.692 45.96C453.585 46.28 453.412 46.5333 453.172 46.72C452.958 46.9067 452.652 47 452.252 47H449.652ZM467.396 47C467.129 47 466.902 46.92 466.716 46.76C466.556 46.5733 466.476 46.3467 466.476 46.08V27.12C466.476 26.8533 466.556 26.64 466.716 26.48C466.902 26.2933 467.129 26.2 467.396 26.2H469.316C469.582 26.2 469.796 26.2933 469.956 26.48C470.116 26.64 470.196 26.8533 470.196 27.12V46.08C470.196 46.3467 470.116 46.5733 469.956 46.76C469.796 46.92 469.582 47 469.316 47H467.396ZM467.076 22.32C466.809 22.32 466.582 22.24 466.396 22.08C466.236 21.8933 466.156 21.6667 466.156 21.4V19.24C466.156 18.9733 466.236 18.76 466.396 18.6C466.582 18.4133 466.809 18.32 467.076 18.32H469.596C469.862 18.32 470.076 18.4133 470.236 18.6C470.422 18.76 470.516 18.9733 470.516 19.24V21.4C470.516 21.6667 470.422 21.8933 470.236 22.08C470.076 22.24 469.862 22.32 469.596 22.32H467.076ZM484.521 47.4C481.775 47.4 479.588 46.56 477.961 44.88C476.335 43.1733 475.441 40.8533 475.281 37.92C475.255 37.5733 475.241 37.1333 475.241 36.6C475.241 36.04 475.255 35.5867 475.281 35.24C475.388 33.3467 475.828 31.6933 476.601 30.28C477.375 28.84 478.428 27.7333 479.761 26.96C481.121 26.1867 482.708 25.8 484.521 25.8C486.548 25.8 488.241 26.2267 489.601 27.08C490.988 27.9333 492.041 29.1467 492.761 30.72C493.481 32.2933 493.841 34.1333 493.841 36.24V36.92C493.841 37.2133 493.748 37.44 493.561 37.6C493.401 37.76 493.188 37.84 492.921 37.84H479.081C479.081 37.8667 479.081 37.92 479.081 38C479.081 38.08 479.081 38.1467 479.081 38.2C479.135 39.2933 479.375 40.32 479.801 41.28C480.228 42.2133 480.841 42.9733 481.641 43.56C482.441 44.1467 483.401 44.44 484.521 44.44C485.481 44.44 486.281 44.2933 486.921 44C487.561 43.7067 488.081 43.3867 488.481 43.04C488.881 42.6667 489.148 42.3867 489.281 42.2C489.521 41.8533 489.708 41.6533 489.841 41.6C489.975 41.52 490.188 41.48 490.481 41.48H492.401C492.668 41.48 492.881 41.56 493.041 41.72C493.228 41.8533 493.308 42.0533 493.281 42.32C493.255 42.72 493.041 43.2133 492.641 43.8C492.241 44.36 491.668 44.92 490.921 45.48C490.175 46.04 489.268 46.5067 488.201 46.88C487.135 47.2267 485.908 47.4 484.521 47.4ZM479.081 35.08H490.041V34.96C490.041 33.76 489.815 32.6933 489.361 31.76C488.935 30.8267 488.308 30.0933 487.481 29.56C486.655 29 485.668 28.72 484.521 28.72C483.375 28.72 482.388 29 481.561 29.56C480.761 30.0933 480.148 30.8267 479.721 31.76C479.295 32.6933 479.081 33.76 479.081 34.96V35.08ZM503.597 47C503.251 47 502.984 46.92 502.797 46.76C502.611 46.5733 502.451 46.32 502.317 46L496.637 27.44C496.584 27.3067 496.557 27.1733 496.557 27.04C496.557 26.8 496.637 26.6 496.797 26.44C496.984 26.28 497.184 26.2 497.397 26.2H499.157C499.451 26.2 499.677 26.28 499.837 26.44C499.997 26.6 500.104 26.7467 500.157 26.88L504.597 41.96L509.357 27.04C509.411 26.8533 509.517 26.6667 509.677 26.48C509.864 26.2933 510.131 26.2 510.477 26.2H511.837C512.184 26.2 512.451 26.2933 512.637 26.48C512.824 26.6667 512.931 26.8533 512.957 27.04L517.717 41.96L522.157 26.88C522.184 26.7467 522.277 26.6 522.437 26.44C522.597 26.28 522.824 26.2 523.117 26.2H524.877C525.117 26.2 525.317 26.28 525.477 26.44C525.637 26.6 525.717 26.8 525.717 27.04C525.717 27.1733 525.691 27.3067 525.637 27.44L519.957 46C519.877 46.32 519.731 46.5733 519.517 46.76C519.331 46.92 519.051 47 518.677 47H517.117C516.771 47 516.477 46.92 516.237 46.76C516.024 46.5733 515.877 46.32 515.797 46L511.157 31.68L506.517 46C506.411 46.32 506.251 46.5733 506.037 46.76C505.824 46.92 505.531 47 505.157 47H503.597Z" fill="white"/>
<defs>
<linearGradient id="paint0_linear_4_11" x1="442" y1="68.5" x2="451.5" y2="3.99993" gradientUnits="userSpaceOnUse">
<stop stop-color="white"/>
<stop offset="1" stop-color="#101010"/>
</linearGradient>
</defs>
</svg>
